<?xml version="1.0" encoding="UTF-8" standalone="no"?>
<!-- Created with Inkscape (http://www.inkscape.org/) -->

<svg
   version="1.1"
   id="svg2"
   xml:space="preserve"
   width="1010.1532"
   height="359.15848"
   viewBox="0 0 1010.1532 359.15848"
   sodipodi:docname="vypocetni-oblast.svg"
   inkscape:version="1.1.2 (1:1.1+202202050950+0a00cf5339)"
   xmlns:inkscape="http://www.inkscape.org/namespaces/inkscape"
   xmlns:sodipodi="http://sodipodi.sourceforge.net/DTD/sodipodi-0.dtd"
   xmlns="http://www.w3.org/2000/svg"
   xmlns:svg="http://www.w3.org/2000/svg"><defs
     id="defs6" /><sodipodi:namedview
     id="namedview4"
     pagecolor="#ffffff"
     bordercolor="#666666"
     borderopacity="1.0"
     inkscape:pageshadow="2"
     inkscape:pageopacity="0.0"
     inkscape:pagecheckerboard="0"
     showgrid="false"
     inkscape:zoom="0.9281994"
     inkscape:cx="460.56914"
     inkscape:cy="129.28257"
     inkscape:window-width="1920"
     inkscape:window-height="1043"
     inkscape:window-x="0"
     inkscape:window-y="0"
     inkscape:window-maximized="1"
     inkscape:current-layer="g10" /><g
     id="g8"
     inkscape:groupmode="layer"
     inkscape:label="vypocetni-oblast"
     transform="matrix(1.3333333,0,0,1.3333333,0,1.0978962e-5)"><g
       id="g10"><path
         d="M 22.109,34.621 H 634.015 V 230.285 H 22.109 Z"
         style="fill:#ffffff;fill-opacity:0.0985715;fill-rule:evenodd;stroke:none"
         id="path12" /><g
         id="g14"
         transform="translate(-45,-1.5)"><path
           d="M 67.109,36.121 H 679.015 V 231.785 H 67.109 Z"
           style="fill:none;stroke:#000000;stroke-width:1.49669;stroke-linecap:butt;stroke-linejoin:miter;stroke-miterlimit:4;stroke-dasharray:none;stroke-opacity:1"
           id="path16" /></g><g
         id="g18"
         transform="translate(-45,-1.5)"><path
           d="m 237.973,94.949 c -11.223,0 -21.985,4.457 -29.922,12.395 -7.938,7.933 -12.395,18.699 -12.395,29.922 0,11.222 4.457,21.984 12.395,29.922 7.937,7.937 18.699,12.394 29.922,12.394 23.371,0 42.32,-18.945 42.316,-42.316 0.004,-23.371 -18.945,-42.317 -42.316,-42.317 z"
           style="fill:#00ffff;fill-opacity:1;fill-rule:nonzero;stroke:#0000ff;stroke-width:2.25;stroke-linecap:butt;stroke-linejoin:miter;stroke-miterlimit:4;stroke-dasharray:none;stroke-opacity:1"
           id="path20" /></g><path
         d="m 606.797,72.914 h -0.836 c -0.16,0.836 -0.316,1.621 -0.629,2.402 -0.156,0.524 -0.262,0.836 -2.191,0.836 h -2.664 c 0.468,-1.879 1.461,-3.5 2.976,-5.691 1.567,-2.352 2.926,-4.649 2.926,-7.313 0,-4.597 -4.492,-8.359 -10.133,-8.359 -5.695,0 -10.133,3.813 -10.133,8.359 0,2.664 1.356,4.961 2.922,7.313 1.465,2.191 2.508,3.812 2.981,5.691 h -2.664 c -1.934,0 -2.04,-0.312 -2.196,-0.785 -0.312,-0.781 -0.468,-1.617 -0.625,-2.453 h -0.836 l 1.094,5.379 h 5.328 c 0.731,0 0.836,0 0.836,-0.68 0,-2.347 -1.043,-5.273 -1.773,-7.414 -0.735,-1.933 -1.672,-4.547 -1.672,-7.051 0,-5.328 3.707,-7.625 6.738,-7.625 3.184,0 6.734,2.403 6.734,7.625 0,2.504 -0.937,5.012 -1.878,7.731 -0.524,1.41 -1.567,4.437 -1.567,6.734 0,0.68 0.106,0.68 0.836,0.68 h 5.328 z"
         style="fill:#000000;fill-opacity:1;fill-rule:nonzero;stroke:none"
         id="path24" /><g
         id="g84"
         transform="translate(-45,-1.5)"><path
           d="M 67.109,36.121 V 231.785"
           style="fill:none;stroke:#ff0000;stroke-width:2.25;stroke-linecap:butt;stroke-linejoin:miter;stroke-miterlimit:4;stroke-dasharray:none;stroke-opacity:1"
           id="path86" /></g><g
         id="g88"
         transform="translate(-45,-1.5)"><path
           d="M 679.016,36.121 V 231.785"
           style="fill:none;stroke:#ffcc00;stroke-width:2.25;stroke-linecap:butt;stroke-linejoin:miter;stroke-miterlimit:4;stroke-dasharray:none;stroke-opacity:1"
           id="path90" /></g><g
         id="g92"
         transform="translate(-45,-1.5)"><path
           d="M 679.016,36.121 H 67.109"
           style="fill:none;stroke:#00c400;stroke-width:2.25;stroke-linecap:butt;stroke-linejoin:miter;stroke-miterlimit:4;stroke-dasharray:none;stroke-opacity:1"
           id="path94" /></g><g
         id="g96"
         transform="translate(-45,-1.5)"><path
           d="M 679.016,231.785 H 67.109"
           style="fill:none;stroke:#00c400;stroke-width:2.25;stroke-linecap:butt;stroke-linejoin:miter;stroke-miterlimit:4;stroke-dasharray:none;stroke-opacity:1"
           id="path98" /></g></g><g
       id="g12"
       style="stroke:none;stroke-width:0.0225;stroke-miterlimit:4;stroke-dasharray:none"
       transform="matrix(1.1504739,0,0,1.1504739,11.145998,16.445)"><path
         d="m 582.406,146.113 c -0.234,-1.554 -1.246,-2.953 -3.187,-2.953 -1.516,0 -3.11,0.43 -5.055,2.332 -2.059,2.059 -2.215,4.391 -2.215,5.129 0,1.555 1.09,4.434 4.547,4.434 5.91,0 8.473,-8.321 8.473,-11.895 0,-3.926 -2.289,-6.414 -5.364,-6.414 -3.574,0 -4.738,3.227 -4.738,3.926 0,0.351 0.231,0.855 0.969,0.855 0.816,0 1.324,-0.742 1.324,-1.281 0,-0.894 -0.781,-0.894 -1.168,-0.894 1.086,-1.829 2.879,-1.985 3.574,-1.985 1.829,0 3.536,1.285 3.536,4.512 0,0.969 -0.153,2.215 -0.661,4.234 z m -5.832,8.239 c -2.719,0 -2.719,-2.567 -2.719,-2.797 0,-0.66 0.622,-4.117 1.633,-5.637 0.969,-1.398 2.215,-2.211 3.731,-2.211 2.719,0 2.758,2.797 2.758,3.301 0,1.789 -1.594,7.344 -5.403,7.344 z"
         style="fill:#ffb300;fill-opacity:1;fill-rule:nonzero;stroke:none;stroke-width:0.0225;stroke-linecap:butt;stroke-linejoin:miter;stroke-miterlimit:4;stroke-dasharray:none;stroke-opacity:1"
         id="path14" /></g><g
       id="g16"
       style="stroke:none;stroke-width:0.0225;stroke-miterlimit:4;stroke-dasharray:none"
       transform="matrix(1.1504739,0,0,1.1504739,11.145998,16.445)"><path
         d="m 602.262,150.504 h -0.621 c -0.118,0.621 -0.235,1.207 -0.465,1.789 -0.117,0.387 -0.196,0.625 -1.633,0.625 h -1.984 c 0.351,-1.402 1.089,-2.606 2.218,-4.238 1.164,-1.75 2.176,-3.461 2.176,-5.446 0,-3.418 -3.344,-6.214 -7.539,-6.214 -4.238,0 -7.543,2.835 -7.543,6.214 0,1.985 1.012,3.696 2.18,5.446 1.086,1.632 1.863,2.836 2.215,4.238 h -1.985 c -1.437,0 -1.515,-0.238 -1.633,-0.586 -0.23,-0.582 -0.347,-1.207 -0.464,-1.828 h -0.625 l 0.82,4.004 h 3.965 c 0.543,0 0.621,0 0.621,-0.504 0,-1.75 -0.777,-3.926 -1.324,-5.52 -0.543,-1.437 -1.243,-3.379 -1.243,-5.25 0,-3.961 2.762,-5.672 5.016,-5.672 2.367,0 5.012,1.79 5.012,5.672 0,1.871 -0.699,3.735 -1.399,5.754 -0.386,1.051 -1.164,3.305 -1.164,5.016 0,0.504 0.075,0.504 0.621,0.504 h 3.965 z"
         style="fill:#ffb300;fill-opacity:1;fill-rule:nonzero;stroke:none;stroke-width:0.0225;stroke-linecap:butt;stroke-linejoin:miter;stroke-miterlimit:4;stroke-dasharray:none;stroke-opacity:1"
         id="path18" /></g><g
       id="g20"
       style="stroke:none;stroke-width:0.0225;stroke-miterlimit:4;stroke-dasharray:none"
       transform="matrix(1.1504739,0,0,1.1504739,11.145998,16.445)"><path
         d="m 612.543,154.531 c 0,-2.176 -1.867,-4.039 -4.234,-4.039 -2.411,0 -4.278,1.863 -4.278,4.039 0,2.141 1.903,3.848 4.278,3.848 2.328,0 4.234,-1.707 4.234,-3.848 z m -4.234,3.305 c -0.664,0 -1.598,-0.195 -2.18,-1.047 -0.469,-0.703 -0.504,-1.598 -0.504,-2.41 0,-0.742 0,-1.789 0.621,-2.531 0.43,-0.504 1.168,-0.852 2.063,-0.852 1.007,0 1.746,0.465 2.136,1.008 0.465,0.664 0.504,1.558 0.504,2.375 0,0.812 -0.039,1.746 -0.547,2.445 -0.464,0.66 -1.242,1.012 -2.093,1.012 z"
         style="fill:#ffb300;fill-opacity:1;fill-rule:nonzero;stroke:none;stroke-width:0.0225;stroke-linecap:butt;stroke-linejoin:miter;stroke-miterlimit:4;stroke-dasharray:none;stroke-opacity:1"
         id="path22-9" /></g><g
       id="g24"
       style="stroke:none;stroke-width:0.0225;stroke-miterlimit:4;stroke-dasharray:none"
       transform="matrix(1.1504739,0,0,1.1504739,11.145998,16.445)"><path
         d="m 619.508,150.762 v 0.621 c 1.168,0 1.281,0.117 1.281,0.972 v 2.993 c 0,1.515 -0.969,2.566 -2.293,2.566 -1.555,0 -1.629,-0.738 -1.629,-1.633 v -5.715 l -2.683,0.196 v 0.621 c 1.32,0 1.32,0.078 1.32,1.594 v 2.605 c 0,1.207 0,2.797 2.879,2.797 0.387,0 1.629,0 2.484,-1.438 v 1.438 l 2.606,-0.152 v -0.625 c -1.168,0 -1.285,-0.118 -1.285,-0.969 v -6.067 z"
         style="fill:#ffb300;fill-opacity:1;fill-rule:nonzero;stroke:none;stroke-width:0.0225;stroke-linecap:butt;stroke-linejoin:miter;stroke-miterlimit:4;stroke-dasharray:none;stroke-opacity:1"
         id="path26-1" /></g><g
       id="g28"
       style="stroke:none;stroke-width:0.0225;stroke-miterlimit:4;stroke-dasharray:none"
       transform="matrix(1.1504739,0,0,1.1504739,11.145998,16.445)"><path
         d="m 627.691,151.383 h 2.684 v -0.621 h -2.684 v -3.184 h -0.621 c 0,1.551 -0.699,3.262 -2.371,3.301 v 0.504 h 1.594 v 4.668 c 0,1.941 1.48,2.328 2.449,2.328 1.164,0 1.946,-0.969 1.946,-2.328 v -0.973 h -0.586 v 0.934 c 0,1.199 -0.543,1.824 -1.243,1.824 -1.168,0 -1.168,-1.438 -1.168,-1.75 z"
         style="fill:#ffb300;fill-opacity:1;fill-rule:nonzero;stroke:none;stroke-width:0.0225;stroke-linecap:butt;stroke-linejoin:miter;stroke-miterlimit:4;stroke-dasharray:none;stroke-opacity:1"
         id="path30-2" /></g><g
       id="g32"
       style="stroke:none;stroke-width:0.0225;stroke-miterlimit:4;stroke-dasharray:none"
       transform="matrix(1.1504739,0,0,1.1504739,11.145998,16.445)"><path
         d="m 581.332,192.305 c -0.234,-1.559 -1.242,-2.953 -3.187,-2.953 -1.516,0 -3.11,0.429 -5.055,2.332 -2.059,2.058 -2.211,4.394 -2.211,5.132 0,1.555 1.086,4.426 4.543,4.426 5.91,0 8.476,-8.32 8.476,-11.89 0,-3.93 -2.293,-6.411 -5.363,-6.411 -3.578,0 -4.742,3.219 -4.742,3.926 0,0.344 0.23,0.848 0.969,0.848 0.816,0 1.324,-0.731 1.324,-1.277 0,-0.899 -0.777,-0.899 -1.168,-0.899 1.09,-1.828 2.879,-1.977 3.574,-1.977 1.828,0 3.543,1.286 3.543,4.508 0,0.969 -0.156,2.215 -0.664,4.235 z m -5.828,8.238 c -2.723,0 -2.723,-2.563 -2.723,-2.797 0,-0.664 0.621,-4.121 1.633,-5.633 0.969,-1.402 2.215,-2.215 3.731,-2.215 2.722,0 2.757,2.797 2.757,3.301 0,1.789 -1.59,7.344 -5.398,7.344 z"
         style="fill:#00ad00;fill-opacity:1;fill-rule:nonzero;stroke:none;stroke-width:0.0225;stroke-linecap:butt;stroke-linejoin:miter;stroke-miterlimit:4;stroke-dasharray:none;stroke-opacity:1"
         id="path34-7" /></g><g
       id="g36"
       style="stroke:none;stroke-width:0.0225;stroke-miterlimit:4;stroke-dasharray:none"
       transform="matrix(1.1504739,0,0,1.1504739,11.145998,16.445)"><path
         d="m 601.191,196.699 h -0.621 c -0.117,0.621 -0.238,1.203 -0.468,1.789 -0.118,0.383 -0.192,0.621 -1.633,0.621 h -1.985 c 0.356,-1.402 1.09,-2.609 2.219,-4.238 1.164,-1.75 2.176,-3.461 2.176,-5.437 0,-3.422 -3.344,-6.227 -7.539,-6.227 -4.238,0 -7.539,2.836 -7.539,6.227 0,1.976 1.008,3.687 2.176,5.437 1.089,1.629 1.867,2.836 2.214,4.238 h -1.984 c -1.437,0 -1.516,-0.238 -1.629,-0.582 -0.234,-0.586 -0.351,-1.207 -0.465,-1.828 h -0.625 l 0.817,4.004 h 3.965 c 0.542,0 0.621,0 0.621,-0.504 0,-1.754 -0.778,-3.929 -1.321,-5.519 -0.543,-1.442 -1.246,-3.387 -1.246,-5.246 0,-3.969 2.762,-5.684 5.016,-5.684 2.367,0 5.015,1.789 5.015,5.684 0,1.859 -0.703,3.726 -1.402,5.75 -0.387,1.05 -1.164,3.304 -1.164,5.015 0,0.504 0.074,0.504 0.621,0.504 h 3.965 z"
         style="fill:#00ad00;fill-opacity:1;fill-rule:nonzero;stroke:none;stroke-width:0.0225;stroke-linecap:butt;stroke-linejoin:miter;stroke-miterlimit:4;stroke-dasharray:none;stroke-opacity:1"
         id="path38-0" /></g><g
       id="g40"
       style="stroke:none;stroke-width:0.0225;stroke-miterlimit:4;stroke-dasharray:none"
       transform="matrix(1.1504739,0,0,1.1504739,11.145998,16.445)"><path
         d="m 614.426,198.621 c 0.347,-0.848 0.929,-1.047 1.472,-1.047 v -0.621 c -0.464,0.039 -0.777,0.082 -1.242,0.082 -0.543,0 -1.207,-0.043 -1.711,-0.082 v 0.621 c 0.586,0 0.895,0.356 0.895,0.742 0,0.157 0,0.196 -0.117,0.426 l -1.672,4.317 -1.863,-4.743 c -0.04,-0.078 -0.079,-0.195 -0.079,-0.316 0,-0.383 0.426,-0.426 0.934,-0.426 v -0.621 c -0.621,0.039 -1.242,0.082 -1.867,0.082 -0.504,0 -1.047,-0.043 -1.555,-0.082 v 0.621 c 0.426,0 0.777,0 1.012,0.121 0.23,0.192 0.387,0.778 0.387,0.778 0,0.039 -0.04,0.148 -0.079,0.191 l -1.632,4.16 -1.747,-4.508 c -0.078,-0.238 -0.078,-0.238 -0.078,-0.316 0,-0.426 0.621,-0.426 0.93,-0.426 v -0.621 c -0.035,0 -1.281,0.082 -1.976,0.082 -0.547,0 -1.094,-0.043 -1.633,-0.082 v 0.621 c 0.695,0 1.086,0 1.242,0.504 l 2.41,6.11 c 0.113,0.265 0.156,0.386 0.504,0.386 0.312,0 0.348,-0.121 0.43,-0.347 l 1.98,-4.942 1.902,4.903 c 0.118,0.226 0.157,0.386 0.504,0.386 0.317,0 0.356,-0.121 0.469,-0.386 z"
         style="fill:#00ad00;fill-opacity:1;fill-rule:nonzero;stroke:none;stroke-width:0.0225;stroke-linecap:butt;stroke-linejoin:miter;stroke-miterlimit:4;stroke-dasharray:none;stroke-opacity:1"
         id="path42-9" /></g><g
       id="g44"
       style="stroke:none;stroke-width:0.0225;stroke-miterlimit:4;stroke-dasharray:none"
       transform="matrix(1.1504739,0,0,1.1504739,11.145998,16.445)"><path
         d="m 623.637,199.75 c 0,-0.891 0,-1.547 -0.813,-2.215 -0.699,-0.582 -1.515,-0.851 -2.566,-0.851 -1.629,0 -2.797,0.621 -2.797,1.671 0,0.583 0.391,0.852 0.855,0.852 0.465,0 0.817,-0.348 0.817,-0.812 0,-0.274 -0.156,-0.665 -0.625,-0.778 0.625,-0.426 1.637,-0.426 1.711,-0.426 0.972,0 2.062,0.621 2.062,2.094 v 0.504 c -0.972,0.039 -2.101,0.121 -3.383,0.586 -1.554,0.539 -2.023,1.52 -2.023,2.293 0,1.477 1.789,1.906 3.035,1.906 1.36,0 2.176,-0.781 2.567,-1.437 0.035,0.691 0.503,1.355 1.316,1.355 0.043,0 1.715,0 1.715,-1.629 v -0.968 h -0.586 v 0.929 c 0,0.196 0,1.004 -0.66,1.004 -0.625,0 -0.625,-0.808 -0.625,-1.004 z m -1.356,2.215 c 0,1.676 -1.476,2.14 -2.254,2.14 -0.894,0 -1.711,-0.582 -1.711,-1.437 0,-0.973 0.817,-2.293 3.965,-2.414 z"
         style="fill:#00ad00;fill-opacity:1;fill-rule:nonzero;stroke:none;stroke-width:0.0225;stroke-linecap:butt;stroke-linejoin:miter;stroke-miterlimit:4;stroke-dasharray:none;stroke-opacity:1"
         id="path46-3" /></g><g
       id="g48"
       style="stroke:none;stroke-width:0.0225;stroke-miterlimit:4;stroke-dasharray:none"
       transform="matrix(1.1504739,0,0,1.1504739,11.145998,16.445)"><path
         d="m 629.359,192.367 -2.601,0.199 v 0.622 c 1.168,0 1.281,0.152 1.281,0.968 v 8.903 c 0,0.734 -0.156,0.734 -1.281,0.734 v 0.621 c 0.039,0 1.242,-0.078 1.945,-0.078 0.656,0 1.281,0.039 1.938,0.078 v -0.621 c -1.125,0 -1.282,0 -1.282,-0.734 z"
         style="fill:#00ad00;fill-opacity:1;fill-rule:nonzero;stroke:none;stroke-width:0.0225;stroke-linecap:butt;stroke-linejoin:miter;stroke-miterlimit:4;stroke-dasharray:none;stroke-opacity:1"
         id="path50-6" /></g><g
       id="g52"
       style="stroke:none;stroke-width:0.0225;stroke-miterlimit:4;stroke-dasharray:none"
       transform="matrix(1.1504739,0,0,1.1504739,11.145998,16.445)"><path
         d="m 634.969,192.367 -2.602,0.199 v 0.622 c 1.168,0 1.285,0.152 1.285,0.968 v 8.903 c 0,0.734 -0.156,0.734 -1.285,0.734 v 0.621 c 0.039,0 1.242,-0.078 1.945,-0.078 0.657,0 1.278,0.039 1.942,0.078 v -0.621 c -1.129,0 -1.285,0 -1.285,-0.734 z"
         style="fill:#00ad00;fill-opacity:1;fill-rule:nonzero;stroke:none;stroke-width:0.0225;stroke-linecap:butt;stroke-linejoin:miter;stroke-miterlimit:4;stroke-dasharray:none;stroke-opacity:1"
         id="path54-0" /></g><g
       id="g3764"
       style="stroke:none;stroke-width:0.0225;stroke-miterlimit:4;stroke-dasharray:none"
       transform="matrix(1.1504739,0,0,1.1504739,11.145998,16.445)"><path
         d="m 593.496,177.496 -3.848,3.899 0.493,0.492 3.355,-2.91 3.27,2.91 0.492,-0.492 z"
         style="fill:#00ad00;fill-opacity:1;fill-rule:nonzero;stroke:none;stroke-width:0.0225;stroke-linecap:butt;stroke-linejoin:miter;stroke-miterlimit:4;stroke-dasharray:none;stroke-opacity:1"
         id="path3766" /></g><g
       id="g3768"
       style="stroke:none;stroke-width:0.0225;stroke-miterlimit:4;stroke-dasharray:none"
       transform="matrix(1.1504739,0,0,1.1504739,11.145998,16.445)"><path
         d="m 594.285,130.684 -3.851,3.894 0.492,0.496 3.359,-2.91 3.266,2.91 0.496,-0.496 z"
         style="fill:#ffb300;fill-opacity:1;fill-rule:nonzero;stroke:none;stroke-width:0.0225;stroke-linecap:butt;stroke-linejoin:miter;stroke-miterlimit:4;stroke-dasharray:none;stroke-opacity:1"
         id="path3770" /></g><g
       id="g3776"
       style="fill:#00d3ff;fill-opacity:1;stroke:none;stroke-width:0.00075;stroke-miterlimit:4;stroke-dasharray:none;stroke-opacity:1"
       transform="matrix(1.1504739,0,0,1.1504739,11.145998,16.445)"><path
         d="m 581.621,0.594 -3.215,3.254 0.41,0.41 2.805,-2.434 2.727,2.434 0.414,-0.41 z"
         style="fill:#00d3ff;fill-opacity:1;fill-rule:nonzero;stroke:none;stroke-width:0.00075;stroke-linecap:butt;stroke-linejoin:miter;stroke-miterlimit:4;stroke-dasharray:none;stroke-opacity:1"
         id="path3778" /></g><g
       id="g3784"
       style="stroke:none;stroke-width:0.0225;stroke-miterlimit:4;stroke-dasharray:none"
       transform="matrix(1.1504739,0,0,1.1504739,11.145998,16.445)"><path
         d="m 582.34,56.473 c -0.215,-1.457 -1.156,-2.778 -2.965,-2.778 -1.402,0 -2.887,0.399 -4.695,2.196 -1.91,1.933 -2.059,4.125 -2.059,4.824 0,1.461 1.012,4.168 4.231,4.168 5.488,0 7.871,-7.824 7.871,-11.188 0,-3.691 -2.129,-6.031 -4.985,-6.031 -3.32,0 -4.41,3.031 -4.41,3.691 0,0.329 0.223,0.805 0.906,0.805 0.758,0 1.227,-0.695 1.227,-1.207 0,-0.84 -0.719,-0.84 -1.082,-0.84 1.012,-1.715 2.672,-1.867 3.324,-1.867 1.699,0 3.293,1.203 3.293,4.242 0,0.914 -0.152,2.082 -0.617,3.985 z m -5.418,7.75 c -2.535,0 -2.535,-2.411 -2.535,-2.629 0,-0.625 0.582,-3.879 1.523,-5.305 0.902,-1.312 2.063,-2.086 3.465,-2.086 2.531,0 2.57,2.637 2.57,3.109 0,1.684 -1.484,6.911 -5.023,6.911 z"
         style="fill:#0000fe;fill-opacity:1;fill-rule:nonzero;stroke:none;stroke-width:0.0225;stroke-linecap:butt;stroke-linejoin:miter;stroke-miterlimit:4;stroke-dasharray:none;stroke-opacity:1"
         id="path3786" /></g><g
       id="g3788"
       style="stroke:none;stroke-width:0.0225;stroke-miterlimit:4;stroke-dasharray:none"
       transform="matrix(1.1504739,0,0,1.1504739,11.145998,16.445)"><path
         d="m 600.805,60.605 h -0.578 c -0.11,0.583 -0.219,1.133 -0.434,1.68 -0.109,0.367 -0.18,0.586 -1.52,0.586 h -1.843 c 0.324,-1.316 1.011,-2.449 2.062,-3.988 1.082,-1.645 2.024,-3.25 2.024,-5.117 0,-3.215 -3.106,-5.848 -7.008,-5.848 -3.942,0 -7.012,2.672 -7.012,5.848 0,1.867 0.938,3.472 2.024,5.117 1.011,1.539 1.734,2.672 2.058,3.988 h -1.844 c -1.339,0 -1.406,-0.219 -1.515,-0.547 -0.215,-0.551 -0.328,-1.136 -0.438,-1.719 h -0.578 l 0.762,3.766 h 3.687 c 0.504,0 0.575,0 0.575,-0.476 0,-1.649 -0.723,-3.692 -1.227,-5.188 -0.508,-1.359 -1.156,-3.184 -1.156,-4.941 0,-3.731 2.566,-5.336 4.664,-5.336 2.203,0 4.66,1.683 4.66,5.336 0,1.757 -0.648,3.511 -1.301,5.414 -0.359,0.984 -1.086,3.105 -1.086,4.715 0,0.476 0.074,0.476 0.578,0.476 h 3.688 z"
         style="fill:#0000fe;fill-opacity:1;fill-rule:nonzero;stroke:none;stroke-width:0.0225;stroke-linecap:butt;stroke-linejoin:miter;stroke-miterlimit:4;stroke-dasharray:none;stroke-opacity:1"
         id="path3790" /></g><g
       id="g3792"
       style="stroke:none;stroke-width:0.0225;stroke-miterlimit:4;stroke-dasharray:none"
       transform="matrix(1.1504739,0,0,1.1504739,11.145998,16.445)"><path
         d="m 605.051,56.531 -2.422,0.184 v 0.586 c 1.082,0 1.191,0.144 1.191,0.949 v 9.617 h 0.543 l 0.578,-0.988 c 0.618,0.805 1.516,1.133 2.352,1.133 2.129,0 3.934,-1.61 3.934,-3.657 0,-2.011 -1.622,-3.691 -3.754,-3.691 -0.977,0 -1.844,0.402 -2.422,0.984 z m 0.07,5.891 c 0.438,-0.774 1.305,-1.285 2.277,-1.285 0.907,0 1.555,0.511 1.879,0.992 0.328,0.473 0.508,1.129 0.508,2.191 0,0.364 0,1.606 -0.652,2.375 -0.649,0.731 -1.445,0.879 -1.918,0.879 -1.293,0 -1.949,-1.027 -2.094,-1.351 z"
         style="fill:#0000fe;fill-opacity:1;fill-rule:nonzero;stroke:none;stroke-width:0.0225;stroke-linecap:butt;stroke-linejoin:miter;stroke-miterlimit:4;stroke-dasharray:none;stroke-opacity:1"
         id="path3794" /></g><g
       id="g3796"
       style="stroke:none;stroke-width:0.0225;stroke-miterlimit:4;stroke-dasharray:none"
       transform="matrix(1.1504739,0,0,1.1504739,11.145998,16.445)"><path
         d="m 593.664,42.918 -3.43,3.508 0.438,0.441 2.992,-2.621 2.91,2.621 0.442,-0.441 z"
         style="fill:#0000fe;fill-opacity:1;fill-rule:nonzero;stroke:none;stroke-width:0.0225;stroke-linecap:butt;stroke-linejoin:miter;stroke-miterlimit:4;stroke-dasharray:none;stroke-opacity:1"
         id="path3798" /></g><g
       id="g3804"
       style="fill:#00d3ff;fill-opacity:1;stroke:none;stroke-width:0.00075;stroke-miterlimit:4;stroke-dasharray:none;stroke-opacity:1"
       transform="matrix(1.1504739,0,0,1.1504739,11.145998,16.445)"><path
         d="m 593.59,15.227 -2.418,0.183 v 0.582 c 1.082,0 1.191,0.149 1.191,0.953 v 9.617 h 0.543 l 0.578,-0.988 c 0.618,0.805 1.516,1.133 2.348,1.133 2.129,0 3.938,-1.609 3.938,-3.656 0,-2.012 -1.625,-3.696 -3.758,-3.696 -0.973,0 -1.84,0.407 -2.422,0.989 z m 0.074,5.886 c 0.438,-0.769 1.301,-1.281 2.277,-1.281 0.903,0 1.555,0.512 1.879,0.992 0.325,0.473 0.504,1.129 0.504,2.192 0,0.363 0,1.605 -0.648,2.375 -0.653,0.73 -1.446,0.879 -1.918,0.879 -1.297,0 -1.949,-1.028 -2.094,-1.352 z"
         style="fill:#00d3ff;fill-opacity:1;fill-rule:nonzero;stroke:none;stroke-width:0.00075;stroke-linecap:butt;stroke-linejoin:miter;stroke-miterlimit:4;stroke-dasharray:none;stroke-opacity:1"
         id="path3806" /></g><g
       id="g3808"
       style="stroke:none;stroke-width:0.0225;stroke-miterlimit:4;stroke-dasharray:none"
       transform="matrix(1.1504739,0,0,1.1504739,11.145998,16.445)"><path
         d="m 582.449,100.387 c -0.234,-1.555 -1.246,-2.953 -3.187,-2.953 -1.516,0 -3.11,0.429 -5.051,2.332 -2.063,2.058 -2.219,4.394 -2.219,5.129 0,1.558 1.09,4.429 4.551,4.429 5.906,0 8.469,-8.316 8.469,-11.89 0,-3.926 -2.293,-6.414 -5.364,-6.414 -3.574,0 -4.742,3.226 -4.742,3.925 0,0.352 0.239,0.856 0.977,0.856 0.812,0 1.316,-0.739 1.316,-1.281 0,-0.895 -0.773,-0.895 -1.16,-0.895 1.086,-1.828 2.871,-1.98 3.574,-1.98 1.825,0 3.535,1.277 3.535,4.503 0,0.977 -0.156,2.219 -0.66,4.239 z m -5.832,8.242 c -2.719,0 -2.719,-2.567 -2.719,-2.797 0,-0.664 0.622,-4.121 1.629,-5.637 0.977,-1.398 2.219,-2.218 3.735,-2.218 2.718,0 2.761,2.8 2.761,3.304 0,1.789 -1.597,7.348 -5.406,7.348 z"
         style="fill:#ff0000;fill-opacity:1;fill-rule:nonzero;stroke:none;stroke-width:0.0225;stroke-linecap:butt;stroke-linejoin:miter;stroke-miterlimit:4;stroke-dasharray:none;stroke-opacity:1"
         id="path3810" /></g><g
       id="g3812"
       style="stroke:none;stroke-width:0.0225;stroke-miterlimit:4;stroke-dasharray:none"
       transform="matrix(1.1504739,0,0,1.1504739,11.145998,16.445)"><path
         d="m 602.309,104.781 h -0.625 c -0.114,0.621 -0.231,1.203 -0.465,1.785 -0.117,0.391 -0.196,0.622 -1.633,0.622 h -1.981 c 0.348,-1.399 1.086,-2.606 2.215,-4.235 1.164,-1.75 2.176,-3.461 2.176,-5.441 0,-3.422 -3.34,-6.219 -7.539,-6.219 -4.234,0 -7.543,2.836 -7.543,6.219 0,1.98 1.016,3.691 2.176,5.441 1.09,1.629 1.867,2.836 2.219,4.235 h -1.981 c -1.441,0 -1.516,-0.231 -1.637,-0.583 -0.23,-0.582 -0.347,-1.203 -0.464,-1.824 h -0.622 l 0.817,4.004 h 3.965 c 0.543,0 0.621,0 0.621,-0.504 0,-1.754 -0.778,-3.929 -1.32,-5.523 -0.547,-1.438 -1.243,-3.383 -1.243,-5.246 0,-3.965 2.758,-5.676 5.012,-5.676 2.371,0 5.012,1.789 5.012,5.676 0,1.863 -0.699,3.734 -1.399,5.754 -0.39,1.046 -1.168,3.3 -1.168,5.015 0,0.504 0.082,0.504 0.621,0.504 h 3.969 z"
         style="fill:#ff0000;fill-opacity:1;fill-rule:nonzero;stroke:none;stroke-width:0.0225;stroke-linecap:butt;stroke-linejoin:miter;stroke-miterlimit:4;stroke-dasharray:none;stroke-opacity:1"
         id="path3814" /></g><g
       id="g3816"
       style="stroke:none;stroke-width:0.0225;stroke-miterlimit:4;stroke-dasharray:none"
       transform="matrix(1.1504739,0,0,1.1504739,11.145998,16.445)"><path
         d="m 607.066,101.809 c 0,-0.504 -0.425,-1.012 -1.011,-1.012 -0.504,0 -0.969,0.43 -0.969,1.012 0,0.625 0.504,1.015 0.969,1.015 0.586,0 1.011,-0.429 1.011,-1.015 z m -2.64,3.226 v 0.621 c 1.086,0 1.242,0.117 1.242,0.977 v 4.504 c 0,0.742 -0.156,0.742 -1.285,0.742 v 0.621 c 0.043,0 1.246,-0.082 1.945,-0.082 0.621,0 1.246,0.043 1.828,0.082 v -0.621 c -1.011,0 -1.168,0 -1.168,-0.742 v -6.293 z"
         style="fill:#ff0000;fill-opacity:1;fill-rule:nonzero;stroke:none;stroke-width:0.0225;stroke-linecap:butt;stroke-linejoin:miter;stroke-miterlimit:4;stroke-dasharray:none;stroke-opacity:1"
         id="path3818" /></g><g
       id="g3820"
       style="stroke:none;stroke-width:0.0225;stroke-miterlimit:4;stroke-dasharray:none"
       transform="matrix(1.1504739,0,0,1.1504739,11.145998,16.445)"><path
         d="m 617.965,107.254 c 0,-1.516 -0.738,-2.41 -2.606,-2.41 -1.441,0 -2.332,0.777 -2.839,1.707 v -1.707 l -2.563,0.191 v 0.621 c 1.164,0 1.32,0.117 1.32,0.977 v 4.504 c 0,0.742 -0.191,0.742 -1.32,0.742 v 0.621 c 0.035,0 1.242,-0.082 1.981,-0.082 0.621,0 1.828,0.082 1.98,0.082 v -0.621 c -1.125,0 -1.281,0 -1.281,-0.742 v -3.149 c 0,-1.785 1.437,-2.64 2.566,-2.64 1.203,0 1.359,0.933 1.359,1.828 v 3.961 c 0,0.742 -0.156,0.742 -1.281,0.742 v 0.621 c 0.035,0 1.242,-0.082 1.981,-0.082 0.625,0 1.828,0.082 1.984,0.082 v -0.621 c -1.125,0 -1.281,0 -1.281,-0.742 z"
         style="fill:#ff0000;fill-opacity:1;fill-rule:nonzero;stroke:none;stroke-width:0.0225;stroke-linecap:butt;stroke-linejoin:miter;stroke-miterlimit:4;stroke-dasharray:none;stroke-opacity:1"
         id="path3822" /></g><g
       id="g3824"
       style="stroke:none;stroke-width:0.0225;stroke-miterlimit:4;stroke-dasharray:none"
       transform="matrix(1.1504739,0,0,1.1504739,11.145998,16.445)"><path
         d="m 594.32,84.766 -3.847,3.894 0.492,0.492 3.355,-2.91 3.27,2.91 0.492,-0.492 z"
         style="fill:#ff0000;fill-opacity:1;fill-rule:nonzero;stroke:none;stroke-width:0.0225;stroke-linecap:butt;stroke-linejoin:miter;stroke-miterlimit:4;stroke-dasharray:none;stroke-opacity:1"
         id="path3826" /></g><path
       d="m 689.1168,38.2948 h -0.71904 c -0.13461,0.714444 -0.26921,1.388622 -0.53958,2.062799 -0.1346,0.449836 -0.22434,0.719046 -1.88792,0.719046 h -2.28715 c 0.40497,-1.612964 1.25862,-3.001586 2.56211,-4.894115 1.34375,-2.017932 2.51148,-3.989844 2.51148,-6.282738 0,-3.944975 -3.85984,-7.176656 -8.70908,-7.176656 -4.88952,0 -8.70449,3.276549 -8.70449,7.176656 0,2.292894 1.16313,4.264806 2.51149,6.282738 1.25861,1.892529 2.15253,3.281151 2.5575,4.894115 h -2.28714 c -1.65899,0 -1.74872,-0.26921 -1.88333,-0.674177 -0.26921,-0.674178 -0.40496,-1.393224 -0.53957,-2.107668 h -0.71905 l 0.94339,4.624905 h 4.58004 c 0.62471,0 0.71444,0 0.71444,-0.584441 0,-2.017931 -0.89852,-4.535168 -1.52783,-6.372475 -0.6247,-1.658983 -1.43349,-3.910461 -1.43349,-6.062997 0,-4.574284 3.18567,-6.547347 5.78804,-6.547347 2.73697,0 5.78803,2.062799 5.78803,6.547347 0,2.152536 -0.80878,4.309675 -1.61296,6.647438 -0.44524,1.207997 -1.34836,3.810369 -1.34836,5.788034 0,0.584441 0.0943,0.584441 0.71905,0.584441 h 4.58003 z"
       style="fill:#00d3ff;fill-opacity:1;fill-rule:nonzero;stroke:none;stroke-width:0.000862855;stroke-linecap:butt;stroke-linejoin:miter;stroke-miterlimit:4;stroke-dasharray:none;stroke-opacity:1"
       id="path3774" /></g></svg>
