<?xml version="1.0" encoding="UTF-8" standalone="no"?>
<!-- Created with Inkscape (http://www.inkscape.org/) -->

<svg
   width="210mm"
   height="297mm"
   viewBox="0 0 210 297"
   version="1.1"
   id="svg1"
   xml:space="preserve"
   inkscape:version="1.3.2 (1:1.3.2+202311252150+091e20ef0f)"
   sodipodi:docname="3dschema.svg"
   xmlns:inkscape="http://www.inkscape.org/namespaces/inkscape"
   xmlns:sodipodi="http://sodipodi.sourceforge.net/DTD/sodipodi-0.dtd"
   xmlns="http://www.w3.org/2000/svg"
   xmlns:svg="http://www.w3.org/2000/svg"><sodipodi:namedview
     id="namedview1"
     pagecolor="#ffffff"
     bordercolor="#000000"
     borderopacity="0.25"
     inkscape:showpageshadow="2"
     inkscape:pageopacity="0.0"
     inkscape:pagecheckerboard="0"
     inkscape:deskcolor="#d1d1d1"
     inkscape:document-units="mm"
     inkscape:zoom="0.43309668"
     inkscape:cx="202.03341"
     inkscape:cy="307.09079"
     inkscape:window-width="1920"
     inkscape:window-height="1016"
     inkscape:window-x="0"
     inkscape:window-y="0"
     inkscape:window-maximized="1"
     inkscape:current-layer="layer1" /><defs
     id="defs1"><marker
       style="overflow:visible"
       id="DartArrow"
       refX="0"
       refY="0"
       orient="auto-start-reverse"
       inkscape:stockid="Dart arrow"
       markerWidth="1"
       markerHeight="1"
       viewBox="0 0 1 1"
       inkscape:isstock="true"
       inkscape:collect="always"
       preserveAspectRatio="xMidYMid"><path
         style="fill:context-stroke;fill-rule:evenodd;stroke:none"
         d="M 0,0 5,-5 -12.5,0 5,5 Z"
         transform="scale(-0.5)"
         id="path16" /></marker><marker
       style="overflow:visible"
       id="DartArrow-5"
       refX="0"
       refY="0"
       orient="auto-start-reverse"
       inkscape:stockid="Dart arrow"
       markerWidth="1"
       markerHeight="1"
       viewBox="0 0 1 1"
       inkscape:isstock="true"
       inkscape:collect="always"
       preserveAspectRatio="xMidYMid"><path
         style="fill:context-stroke;fill-rule:evenodd;stroke:none"
         d="M 0,0 5,-5 -12.5,0 5,5 Z"
         transform="scale(-0.5)"
         id="path16-6" /></marker><marker
       style="overflow:visible"
       id="DartArrow-5-0"
       refX="0"
       refY="0"
       orient="auto-start-reverse"
       inkscape:stockid="Dart arrow"
       markerWidth="1"
       markerHeight="1"
       viewBox="0 0 1 1"
       inkscape:isstock="true"
       inkscape:collect="always"
       preserveAspectRatio="xMidYMid"><path
         style="fill:context-stroke;fill-rule:evenodd;stroke:none"
         d="M 0,0 5,-5 -12.5,0 5,5 Z"
         transform="scale(-0.5)"
         id="path16-6-9" /></marker><marker
       style="overflow:visible"
       id="DartArrow-5-0-2"
       refX="0"
       refY="0"
       orient="auto-start-reverse"
       inkscape:stockid="Dart arrow"
       markerWidth="1"
       markerHeight="1"
       viewBox="0 0 1 1"
       inkscape:isstock="true"
       inkscape:collect="always"
       preserveAspectRatio="xMidYMid"><path
         style="fill:context-stroke;fill-rule:evenodd;stroke:none"
         d="M 0,0 5,-5 -12.5,0 5,5 Z"
         transform="scale(-0.5)"
         id="path16-6-9-3" /></marker></defs><g
     inkscape:label="Layer 1"
     inkscape:groupmode="layer"
     id="layer1"><g
       id="g14"
       transform="matrix(-1,0,0,1,196.12757,-7.2520062)"><ellipse
         style="opacity:1;fill:#666666;fill-opacity:0.25;stroke:#000000;stroke-width:0.74786;stroke-dasharray:none;stroke-opacity:1"
         id="path1"
         transform="matrix(0.80203687,-0.59727453,0.11553923,0.99330292,0,0)"
         ry="7.4990478"
         rx="9.0702839"
         cy="276.83484"
         cx="166.12259" /><ellipse
         style="opacity:1;fill:#666666;fill-opacity:0.25;stroke:#000000;stroke-width:0.695821;stroke-dasharray:none;stroke-opacity:1"
         id="path2"
         ry="4.9639826"
         rx="10.34586"
         cy="90.048042"
         cx="116.29865" /><g
         id="g12"
         style="fill:none;fill-opacity:0.602072;stroke-width:0.9;stroke-dasharray:none"
         transform="matrix(0.77313475,0,0,0.77313475,23.614104,28.15909)"><path
           style="opacity:1;fill:none;fill-opacity:0.602072;stroke:#000000;stroke-width:0.9;stroke-dasharray:none;stroke-opacity:1"
           d="m 133.27069,79.670724 -0.0162,3.751034 c -0.005,1.250345 -0.0107,2.500689 -0.0161,3.751034 -0.005,1.250345 -0.0108,2.500689 -0.0162,3.751034 -0.005,1.250345 -0.0108,2.50069 -0.0162,3.751035 -0.005,1.250345 -0.0107,2.500689 -0.0161,3.751034 -0.005,1.250345 -0.0108,2.500685 -0.0162,3.751035 -0.005,1.25034 -0.0107,2.50069 -0.0161,3.75103 -0.005,1.25035 -0.0108,2.50069 -0.0162,3.75104 -0.005,1.25034 -0.0108,2.50069 -0.0162,3.75103 -0.005,1.25035 -0.0107,2.50069 -0.0161,3.75104 -0.005,1.25034 -0.0108,2.50069 -0.0162,3.75103 -0.005,1.25034 -0.0108,2.50069 -0.0162,3.75103 -0.0519,12.98189 0.69105,15.54527 8.81944,21.36552 0.74034,0.53011 1.48069,1.06024 2.22103,1.59035 0.74035,0.53012 1.48069,1.06022 2.22104,1.59034 0.74034,0.53011 1.48069,1.06023 2.22103,1.59035 l 2.22103,1.59034 2.22104,1.59035 2.22103,1.59034 2.22104,1.59035 2.22103,1.59034 2.22104,1.59035 c 0,0 1.47345,1.07049 2.22103,1.59034 7.94647,5.52578 16.11931,10.72117 24.06578,16.24694 0.74758,0.51986 2.22103,1.59034 2.22103,1.59034 v 0 0 0 0 0 0 0 0 0 0 0 0 0 0 0 0"
           id="path3"
           sodipodi:nodetypes="caaaaaaaaaaaaaaaaaaaaaaaaccccccccccccccccc" /><path
           style="opacity:1;fill:none;fill-opacity:0.602072;stroke:#000000;stroke-width:0.9;stroke-dasharray:none;stroke-opacity:1"
           d="m 42.373193,77.864137 c 0,0 2.01805,1.36145 3.010014,2.066596 6.318378,4.491473 12.414362,9.290455 18.732741,13.781928 0.991964,0.705146 3.010014,2.066596 3.010014,2.066596 l 3.010015,2.066595 3.010014,2.066596 c 1.003338,0.688862 2.006676,1.377732 3.010015,2.066592 1.003338,0.68887 2.006676,1.37773 3.010014,2.0666 1.003338,0.68886 2.006676,1.37773 3.010014,2.06659 1.003339,0.68887 2.006677,1.37774 3.010015,2.0666 1.003338,0.68887 2.006676,1.37773 3.010014,2.0666 1.003339,0.68886 2.006677,1.37773 3.010015,2.06659 1.003338,0.68887 2.006676,1.37773 3.010014,2.0666 1.003338,0.68886 1.993918,1.39669 3.010015,2.06659 7.522263,4.95931 8.978893,7.61953 9.060043,-1.8229 0.003,-0.89141 0.006,-1.78282 0.01,-2.67423 0.003,-0.89141 0.006,-1.78282 0.01,-2.67423 0.003,-0.89141 0.006,-1.78282 0.01,-2.67422 0.003,-0.89141 0.006,-1.78282 0.01,-2.67423 0.003,-0.89141 0.006,-1.78282 0.01,-2.67423 0.003,-0.89141 0.006,-1.782822 0.01,-2.674232 0.003,-0.89141 0.006,-1.78282 0.01,-2.674229 0.003,-0.89141 0.006,-1.78282 0.01,-2.674229 0.003,-0.89141 0.006,-1.78282 0.01,-2.67423 0.003,-0.891409 0.006,-1.782819 0.01,-2.674229 0.003,-0.891409 0.006,-1.782819 0.01,-2.674229 0.003,-0.891409 0.006,-1.782819 0.01,-2.674229 0.003,-0.89141 0.01,-2.674229 0.01,-2.674229"
           id="path5"
           sodipodi:nodetypes="caaaaaaaaaaaasaaaaaaaaaaaaac" /><path
           style="opacity:1;fill:none;fill-opacity:0.602072;stroke:#000000;stroke-width:0.9;stroke-dasharray:none;stroke-opacity:1"
           d="m 106.30577,112.31925 v 20.79651"
           id="path6" /><path
           style="opacity:1;fill:none;fill-opacity:0.602072;stroke:#000000;stroke-width:0.9;stroke-dasharray:none;stroke-opacity:1"
           d="m 101.16814,124.41192 c 3.49891,-0.36367 4.80432,-3.4363 5.12497,-6.77245"
           id="path7"
           sodipodi:nodetypes="cc" /><path
           style="opacity:1;fill:none;fill-opacity:0.602072;stroke:#000000;stroke-width:0.9;stroke-dasharray:none;stroke-opacity:1"
           d="m 42.581547,77.971505 c -2.468284,-0.764099 -10.356053,-1.033996 -15.188204,6.651713 -6.272037,9.975899 0.164233,15.510272 0.164233,15.510272"
           id="path8"
           sodipodi:nodetypes="csc" /><path
           style="opacity:1;fill:none;fill-opacity:0.602072;stroke:#000000;stroke-width:0.9;stroke-dasharray:none;stroke-opacity:1"
           d="m 27.472259,100.09284 c 0,0 2.175109,1.51542 3.262664,2.27312 1.087555,0.75771 2.175109,1.51542 3.262664,2.27313 1.087555,0.75771 2.175109,1.51541 3.262664,2.27312 1.087555,0.75771 2.175109,1.51542 3.262664,2.27313 1.087555,0.7577 2.175109,1.51541 3.262664,2.27312 1.087555,0.75771 2.175109,1.51541 3.262664,2.27312 1.087555,0.75771 2.175109,1.51542 3.262664,2.27313 1.087555,0.7577 2.175109,1.51541 3.262664,2.27312 1.087555,0.75771 2.175109,1.51542 3.262664,2.27312 1.087555,0.75771 2.175109,1.51542 3.262664,2.27313 1.087555,0.75771 2.175109,1.51541 3.262664,2.27312 1.087555,0.75771 2.175109,1.51542 3.262664,2.27312 1.087555,0.75771 2.175109,1.51542 3.262664,2.27313 1.087555,0.75771 2.235291,1.43563 3.262664,2.27312 5.150961,4.19898 5.759428,6.02138 6.525328,11.89243 0.158381,1.21407 0,2.44872 0,3.67308 0,1.22437 0,2.44873 0,3.67309 0,1.22437 0,2.44873 0,3.67309 0,1.22436 0,2.44873 0,3.67309 0,1.22436 0,2.44872 0,3.67309 0,1.22436 0,2.44872 0,3.67308 0,1.22437 0,2.44873 0,3.67309 0,1.22437 0,2.44873 0,3.67309 0,1.22436 0,2.44873 0,3.67309 0,1.22436 0,2.44872 0,3.67309 0,1.22436 0,2.44872 0,3.67309 0,1.22436 0,2.44872 0,3.67308 0,1.22437 0,2.44873 0,3.67309 0,1.22436 0,3.67309 0,3.67309"
           id="path9"
           sodipodi:nodetypes="caaaaaaaaaaaaassaaaaaaaaaaaaac" /><path
           style="opacity:1;fill:none;fill-opacity:0.602072;stroke:#000000;stroke-width:0.9;stroke-dasharray:none;stroke-opacity:1"
           d="m 79.679876,195.18119 c 0,0 0.05827,4.05057 3.96466,6.17422 2.462286,1.33858 5.361371,1.85833 8.158599,2.03205 3.212522,0.19951 6.653459,0.1689 9.586635,-1.15646 3.65475,-1.65142 5.06552,-5.06619 5.06552,-5.06619"
           id="path10"
           sodipodi:nodetypes="csasc" /><path
           style="opacity:1;fill:none;fill-opacity:0.602072;stroke:#000000;stroke-width:0.9;stroke-dasharray:none;stroke-opacity:1"
           d="m 106.42867,197.33035 v -42.1337"
           id="path11" /><path
           style="opacity:1;fill:none;fill-opacity:0.602072;stroke:#000000;stroke-width:0.9;stroke-dasharray:none;stroke-opacity:1"
           d="m 96.507839,148.05796 79.482651,54.05746"
           id="path12"
           sodipodi:nodetypes="cc" /></g><path
         style="opacity:0.284809;fill:none;fill-opacity:0.25;stroke:#000000;stroke-width:0.695821;stroke-dasharray:2.78328, 0.695821;stroke-dashoffset:0;stroke-opacity:1"
         d="m 44.826762,105.5443 c 3.272898,2.83139 10.083731,-1.52248 12.441606,-5.37621 2.045465,-3.343117 2.97407,-9.532882 -0.760787,-11.733051"
         id="path13"
         sodipodi:nodetypes="cac" /><path
         style="opacity:0.284809;fill:none;fill-opacity:0.25;stroke:#000000;stroke-width:0.695821;stroke-dasharray:2.78329, 0.695821;stroke-dashoffset:0;stroke-opacity:1"
         d="m 85.287751,179.16576 c 3.016615,-6.92841 19.910969,-6.20823 20.597639,1.53135"
         id="path14"
         sodipodi:nodetypes="cc" /></g><path
       style="opacity:1;fill:none;fill-opacity:0.25;stroke:#000000;stroke-width:0.899999;stroke-dasharray:3.6, 0.899999;stroke-dashoffset:0;stroke-opacity:1;marker-end:url(#DartArrow)"
       d="M 100.40567,185.0927 V 154.19358"
       id="path15" /><path
       style="opacity:1;fill:none;fill-opacity:0.25;stroke:#000000;stroke-width:0.899999;stroke-dasharray:none;stroke-dashoffset:0;stroke-opacity:1"
       d="M 100.40044,189.88625 V 179.78512"
       id="path17"
       sodipodi:nodetypes="cc" /><path
       style="fill:none;fill-opacity:0.25;stroke:#000000;stroke-width:0.899999;stroke-dasharray:3.6, 0.899999;stroke-dashoffset:0;stroke-opacity:1;marker-end:url(#DartArrow-5)"
       d="m 79.800071,74.16472 v 30.89912"
       id="path15-9" /><path
       style="fill:none;fill-opacity:0.25;stroke:#000000;stroke-width:0.899999;stroke-dasharray:none;stroke-dashoffset:0;stroke-opacity:1"
       d="M 79.794841,69.37117 V 79.4723"
       id="path17-1"
       sodipodi:nodetypes="cc" /><path
       style="fill:none;fill-opacity:0.25;stroke:#000000;stroke-width:0.899999;stroke-dasharray:none;stroke-dashoffset:0;stroke-opacity:1;marker-end:url(#DartArrow-5-0)"
       d="m 150.32719,84.967709 8.66389,-6.482474"
       id="path15-9-6"
       sodipodi:nodetypes="cc" /><path
       style="fill:none;fill-opacity:0.25;stroke:#000000;stroke-width:0.899999;stroke-dasharray:3.6, 0.899999;stroke-dashoffset:0;stroke-opacity:1"
       d="M 132.68052,98.265594 150.2519,85.061665"
       id="path17-1-0"
       sodipodi:nodetypes="cc" /><path
       style="fill:none;fill-opacity:0.25;stroke:#000000;stroke-width:0.899999;stroke-dasharray:none;stroke-dashoffset:0;stroke-opacity:1;marker-end:url(#DartArrow-5-0-2)"
       d="m 35.273789,164.50062 -19.67092,14.30593"
       id="path15-9-6-5"
       sodipodi:nodetypes="cc" /><path
       style="fill:none;fill-opacity:0.25;stroke:#000000;stroke-width:0.899999;stroke-dasharray:3.6, 0.899999;stroke-dashoffset:0;stroke-opacity:1"
       d="m 49.055609,154.13366 -14.34808,10.70917"
       id="path17-1-0-9"
       sodipodi:nodetypes="cc"
       inkscape:export-filename="3dschema.pdf"
       inkscape:export-xdpi="96"
       inkscape:export-ydpi="96" /></g></svg>
